<!-- Got from https://github.com/campusMVP/dotnetCoreLogoPack + slightly edited -->
<svg id="a" xmlns="http://www.w3.org/2000/svg" viewBox="0 0 283.4646 283.4646"><rect width="283.4646" height="283.4646" style="fill:#68217a;"/><path d="M184.9104,137.9485c-1.9339-1.4241-4.4215-2.1333-7.4967-2.1333-2.1969,0-4.1336.4213-5.8068,1.2633-1.6871.834-3.1554,1.9671-4.4269,3.3855-1.2718,1.4238-2.3549,3.0752-3.2303,4.9395-.8976,1.8755-1.6125,3.8369-2.1387,5.8567-.5291,2.0221-.9308,4.0641-1.158,6.1361-.2329,2.0695-.3713,4.0394-.3713,5.8845v32.3718h-8.1949v-66.1761h8.1949v14.1511h.2686c.7787-2.4045,1.7594-4.571,2.9449-6.4882,1.183-1.9197,2.5489-3.535,4.1058-4.8508,1.5515-1.3106,3.2357-2.3163,5.0698-3.0059,1.8201-.6843,3.7623-1.0306,5.7736-1.0306,1.3489,0,2.543.0888,3.5957.2604,1.0528.1716,2.0113.4267,2.8703.7702v8.6658Z" style="fill:#fff;"/><path d="M200.4575,164.0508c.0332,4.0505.5708,7.6907,1.6179,10.9211,1.0278,3.2357,2.5157,5.9784,4.4522,8.2085,1.9418,2.2468,4.3024,3.9588,7.0783,5.139,2.7815,1.1858,5.912,1.7705,9.3971,1.7705,7.4661,0,14.5029-2.5989,21.1352-7.8099v8.1395c-6.3305,4.5268-13.9931,6.7846-23.0081,6.7846-4.4269,0-8.4717-.7759-12.0842-2.3271-3.621-1.5486-6.6961-3.7954-9.2309-6.7515-2.5461-2.9506-4.5103-6.577-5.8817-10.8876-1.3852-4.3052-2.0638-9.2144-2.0638-14.7384,0-4.9534.7396-9.5441,2.244-13.7633,1.5183-4.2249,3.6125-7.8734,6.2831-10.9486,2.6652-3.0916,5.8346-5.499,9.4913-7.2445,3.6652-1.7398,7.674-2.6125,12.0124-2.6125,4.2831,0,8.0397.7452,11.3253,2.2329,3.2746,1.4851,6.023,3.6071,8.228,6.3608,2.2136,2.7594,3.9285,6.1225,5.078,10.0788,1.1691,3.9671,1.7481,8.3997,1.7481,13.3143v4.1333h-47.8222ZM239.7498,156.8148c-.1274-6.8873-1.7759-12.234-4.9228-16.0269-3.1333-3.7926-7.5106-5.6873-13.1123-5.6873-2.7954,0-5.3883.493-7.7932,1.4848-2.3881,1-4.4851,2.4323-6.2916,4.2996-1.8145,1.8783-3.3021,4.1557-4.4879,6.8539-1.194,2.6874-2.0196,5.7126-2.4905,9.076h39.0982Z" style="fill:#fff;"/><path d="M58.2486,206.1164c-12.4527-12.4558-18.4215-28.9326-18.0836-45.3345-.3379-17.0212,5.6309-32.6364,18.0836-45.092,24.443-24.4348,64.0124-24.2838,88.4498.1566l5.2581-5.4604c-13.6995-13.697-31.7899-20.6478-49.7864-20.6478s-35.9816,6.7251-49.6812,20.422c-13.8779,13.8782-20.6961,33.6004-20.5131,50.6216-.183,18.4632,6.6351,36.9859,20.5131,50.8641,13.6995,13.6967,31.6932,20.5423,49.6812,20.5423s36.0869-6.8899,49.7864-20.5866l-5.2581-5.3997c-24.4373,24.4404-64.0068,24.3491-88.4498-.0857Z" style="fill:#fff;"/><path d="M101.4248,186.0754c-3.499,0-6.6349-.5929-9.4164-1.7563-2.7787-1.1637-5.1557-2.8204-7.1086-4.9481-1.9728-2.1276-3.4632-4.6874-4.5075-7.6627-1.0445-2.9756-1.5764-6.2777-1.5764-9.9041,0-3.9257.554-7.4385,1.6624-10.5497,1.1052-3.0945,2.6732-5.7208,4.7152-7.8927,2.0389-2.1665,4.51-3.8065,7.3912-4.9481,2.8868-1.1359,6.1032-1.6981,9.6686-1.6981,3.4076,0,6.48.5569,9.2088,1.676,2.7373,1.1248,5.0476,2.7373,6.9483,4.8593,1.903,2.1166,3.3631,4.6987,4.3852,7.735,1.0031,3.0363,1.5101,6.4936,1.5101,10.3557,0,3.6874-.5291,7.0394-1.5818,10.0564-1.0613,3.0306-2.5711,5.6405-4.5407,7.8124-1.9642,2.1776-4.3523,3.8647-7.1753,5.0559-2.8315,1.2051-6.0144,1.8091-9.5829,1.8091Z" style="fill:#40ccf4;"/><path d="M37.6109,69.1012v-20.146h9.8201v1.714h-7.9516v7.3897h7.3616v1.6859h-7.3616v7.6572h8.4012v1.6993h-10.2697Z" style="fill:#fff;"/><path d="M61.494,69.1012v-8.2888c0-3.2496-1.1801-4.8743-3.5403-4.8743-.6273,0-1.2082.1234-1.7421.3714-.5339.2492-.995.5925-1.3841,1.0335-.3885.4398-.6927.9614-.9126,1.5661-.2205.6035-.3305,1.2571-.3305,1.9595v8.2326h-1.7983v-14.386h1.7983v2.5007h.0562c1.0677-1.8911,2.6742-2.8379,4.8188-2.8379,1.5735,0,2.7725.5106,3.5965,1.5319.824,1.0201,1.2363,2.4958,1.2363,4.4248v8.7665h-1.7983Z" style="fill:#fff;"/><path d="M73.8008,68.9326c-.6181.3091-1.2925.4642-2.023.4642-2.3229,0-3.4841-1.3401-3.4841-4.018v-9.0902h-2.5288v-1.5735h2.5288v-3.6246l1.7983-.5901v4.2147h3.7089v1.5735h-3.7089v8.8092c0,.9736.1594,1.6761.4777,2.1073.3182.43.857.6462,1.6156.6462.562,0,1.1007-.1686,1.6156-.5058v1.5869Z" style="fill:#fff;"/><path d="M77.6502,51.0771c-.3463,0-.6462-.1222-.8991-.3653-.2529-.2443-.3793-.5534-.3793-.9272,0-.3653.1264-.6682.3793-.9065.2529-.2394.5528-.3579.8991-.3579.1777,0,.3463.0305.5058.0904.1594.0611.2975.1478.4141.2602.1173.1124.2113.2455.281.4007.0709.1539.1057.325.1057.5131,0,.1771-.033.3457-.0983.5058-.0654.1588-.1594.2969-.281.4141s-.2602.2089-.4141.2736c-.1551.066-.3256.099-.5131.099ZM76.7651,69.1012v-14.386h1.7983v14.386h-1.7983Z" style="fill:#fff;"/><path d="M89.3809,68.9326c-.6181.3091-1.2925.4642-2.023.4642-2.3229,0-3.4841-1.3401-3.4841-4.018v-9.0902h-2.5288v-1.5735h2.5288v-3.6246l1.7983-.5901v4.2147h3.7089v1.5735h-3.7089v8.8092c0,.9736.1594,1.6761.4777,2.1073.3182.43.857.6462,1.6156.6462.562,0,1.1007-.1686,1.6156-.5058v1.5869Z" style="fill:#fff;"/><path d="M96.5178,71.7143c-.562,1.4049-1.2082,2.4469-1.9387,3.1262s-1.6156,1.0188-2.6552,1.0188c-.5149,0-.9504-.0611-1.3065-.1832v-1.6859c.2058.0757.4141.1319.6255.1686.2101.0379.4233.0562.6389.0562.5901,0,1.1031-.1845,1.538-.5546.4361-.3702.813-.9297,1.1312-1.6785l1.2503-2.9503-5.5352-14.3164h1.9949l4.1163,11.3942c.0562.149.1099.3201.1613.5119.0519.193.1008.3824.1478.5693h.0702c.047-.1588.091-.3201.1338-.485.0415-.1637.1002-.3433.1753-.54l4.3692-11.4504h1.8966l-6.8137,16.9991Z" style="fill:#fff;"/><path d="M115.863,50.6691v7.5864h7.3616v1.7005h-7.3616v9.1452h-1.8685v-20.146h9.8201v1.714h-7.9516Z" style="fill:#fff;"/><path d="M134.548,56.5562c-.4215-.3091-.9645-.4642-1.6297-.4642-.4777,0-.8991.0916-1.2644.2736-.3653.1832-.686.4288-.962.7379-.2767.3091-.5106.667-.7024,1.075-.1924.4068-.3469.8307-.4642,1.2717-.1167.4398-.201.8845-.2529,1.334-.0513.4496-.077.8759-.077,1.2791v7.0379h-1.7842v-14.386h1.7842v3.0773h.0562c.1686-.5253.3818-.9956.6389-1.4122.2578-.4166.5552-.7684.8924-1.0543.3372-.2846.7049-.5033,1.1025-.6524.3983-.1503.8173-.2248,1.2577-.2248.2901,0,.5503.0183.78.0562.2291.0366.4373.0928.6249.1686v1.8825Z" style="fill:#fff;"/><path d="M145.4499,69.1012v-2.5569h-.0562c-.4685.9187-1.1074,1.6297-1.9174,2.1354-.8106.5058-1.7262.7586-2.7469.7586-.6933,0-1.3181-.0977-1.8758-.2944-.5571-.1967-1.0298-.4752-1.4183-.8368-.3891-.3604-.689-.7928-.8991-1.2986-.2113-.5058-.3164-1.0628-.3164-1.6724,0-1.301.4025-2.3394,1.2082-3.1115.8057-.7733,2.023-1.2766,3.6527-1.5099l4.3692-.6328c0-2.7621-1.0726-4.1438-3.2172-4.1438-1.6767,0-3.2312.6133-4.6642,1.8398v-1.9668c.2999-.215.6389-.4092,1.0188-.5827.3787-.1735.7794-.3237,1.2009-.4496.4215-.1271.8545-.2248,1.2998-.2956.4447-.0696.8777-.1051,1.2992-.1051,1.6016,0,2.8122.4496,3.6313,1.3487.8197.8991,1.2296,2.2393,1.2296,4.018v9.3565h-1.7983ZM141.741,62.1195c-.6462.0928-1.199.2101-1.6578.3506s-.838.3298-1.138.5693c-.2999.2382-.5198.5339-.6603.8845-.1405.3518-.2107.7855-.2107,1.2998,0,.3848.0678.7403.204,1.0677.1356.3286.3323.6108.5901.8503.2572.2382.5711.4239.9407.5546.3702.1319.7892.1967,1.2577.1967.6371,0,1.2222-.1209,1.7561-.3653.5339-.2431.995-.5803,1.3841-1.0115.3885-.43.6927-.9455.9126-1.5454.2205-.5986.3305-1.2497.3305-1.9522v-1.4195l-3.7089.5204Z" style="fill:#fff;"/><path d="M169.6561,69.1012v-8.4574c0-.8613-.0654-1.5894-.1967-2.1843s-.3347-1.0799-.6108-1.4538c-.2767-.375-.6279-.6462-1.0543-.8148-.4257-.1686-.9339-.2529-1.524-.2529-.5247,0-1.0207.1234-1.4892.3714-.4685.2492-.8777.5901-1.2296,1.0262-.3506.4349-.6273.948-.8283,1.538-.2016.5901-.3024,1.2277-.3024,1.9106v8.3169h-1.7983v-8.6394c0-3.0162-1.1569-4.5237-3.4701-4.5237-.5339,0-1.0305.1185-1.4892.3579-.4587.2382-.8594.5742-1.2009,1.0042-.3421.4312-.609.948-.8014,1.5527-.1918.6035-.2877,1.2717-.2877,2.0023v8.2461h-1.7983v-14.386h1.7983v2.3321h.0562c1.0115-1.7787,2.4866-2.6693,4.4254-2.6693.5058,0,.9834.077,1.433.2321.4496.1539.8521.3702,1.2082.6462s.6627.6059.9199.9907c.2578.3836.452.8051.5833,1.2644.5058-1.0213,1.1636-1.7983,1.9736-2.3321.8106-.5339,1.7262-.8014,2.7469-.8014,3.1561,0,4.7345,1.9485,4.7345,5.8443v8.8789h-1.7983Z" style="fill:#fff;"/><path d="M176.6383,62.2319c.0092.8796.1264,1.6712.3512,2.3736s.5479,1.2974.9694,1.7848c.4215.4862.9346.8588,1.538,1.1166.6047.2578,1.2858.386,2.0444.386,1.6205,0,3.1518-.5668,4.594-1.6993v1.7702c-1.3768.9834-3.0437,1.4745-5.0014,1.4745-.9645,0-1.8404-.1686-2.6271-.5058s-1.4562-.8258-2.009-1.4684c-.5528-.6414-.9785-1.4305-1.2784-2.3663-.2999-.937-.4496-2.0047-.4496-3.2031,0-1.0775.1637-2.0743.4917-2.993.328-.9175.7818-1.7115,1.3627-2.381s1.2693-1.1948,2.0652-1.5735c.7959-.3799,1.6669-.5693,2.6131-.5693.9272,0,1.7469.1613,2.4585.485.7116.3225,1.309.7843,1.7915,1.3841.4819.5986.8496,1.3291,1.1025,2.1916.2529.8613.3793,1.8264.3793,2.8941v.8991h-10.3961ZM185.18,60.6585c-.0281-1.499-.3842-2.6607-1.0677-3.4841-.6835-.8246-1.6346-1.2363-2.8519-1.2363-.609,0-1.1734.1075-1.6926.3225-.5204.2162-.9767.5265-1.3701.9346-.3934.4068-.7189.904-.9767,1.4892-.2572.5852-.4373,1.2436-.5406,1.9742h8.4996Z" style="fill:#fff;"/><path d="M203.5559,69.1012h-1.7983l-3.0486-10.5647c-.0935-.3274-.1686-.7538-.2248-1.2778h-.0562c-.0189.1405-.0495.314-.091.5192-.0428.2065-.1106.4496-.204.7305l-3.3577,10.5928h-1.7561l-4.3551-14.386h1.9247l3.161,11.1548c.0935.3286.1594.7452.1967,1.251h.1124c.0189-.1686.0489-.3604.0916-.5766.0415-.215.1002-.4447.1753-.6878l3.4841-11.1413h1.4892l3.1188,11.1694c.0843.3176.1545.7354.2107,1.2497h.1124c-.0092-.1588.0092-.3445.0562-.5546.047-.2113.1075-.4422.1826-.6951l3.161-11.1694h1.8123l-4.3973,14.386Z" style="fill:#fff;"/><path d="M216.4949,69.4384c-1.0677,0-2.0255-.1771-2.8733-.5339-.8472-.3555-1.571-.8588-2.1702-1.5099s-1.0586-1.4305-1.3768-2.3394c-.3182-.9077-.4777-1.9155-.4777-3.0199,0-1.1996.1686-2.271.5058-3.2178.3372-.9455.8173-1.7494,1.4397-2.4091.623-.6609,1.375-1.1642,2.2551-1.5099.8802-.3469,1.8636-.5204,2.9503-.5204,1.0396,0,1.976.171,2.8098.5131s1.5405.8356,2.1214,1.4818,1.0256,1.433,1.3346,2.3602.4636,1.9815.4636,3.1616c0,1.1239-.1619,2.1464-.4844,3.0688-.3237.9236-.7849,1.7164-1.3841,2.3822-.5992.6646-1.3298,1.1801-2.1916,1.5454s-1.8355.5473-2.9222.5473ZM216.6354,55.938c-.7867,0-1.4983.1356-2.1354.4068-.6371.2724-1.1825.667-1.637,1.1874-.4538.5192-.8026,1.1569-1.0463,1.9106s-.3653,1.6089-.3653,2.5642c0,.8991.1216,1.7091.3653,2.4298.2437.722.5876,1.3401,1.0329,1.8544.4447.5155.9853.9113,1.6223,1.1874s1.3487.4141,2.1354.4141c.8057,0,1.5173-.1332,2.1354-.4007.6181-.2663,1.1428-.6548,1.5735-1.1654s.7562-1.1361.9761-1.8752c.2205-.7403.3305-1.5832.3305-2.5288,0-1.9387-.4306-3.4218-1.2925-4.4468-.8619-1.0262-2.0933-1.538-3.6948-1.538Z" style="fill:#fff;"/><path d="M234.2386,56.5562c-.4215-.3091-.9645-.4642-1.6297-.4642-.4777,0-.8991.0916-1.2644.2736-.3653.1832-.686.4288-.962.7379-.2767.3091-.5106.667-.7024,1.075-.1924.4068-.3469.8307-.4642,1.2717-.1167.4398-.201.8845-.2529,1.334-.0513.4496-.077.8759-.077,1.2791v7.0379h-1.7842v-14.386h1.7842v3.0773h.0562c.1686-.5253.3818-.9956.6389-1.4122.2578-.4166.5552-.7684.8924-1.0543.3372-.2846.7049-.5033,1.1025-.6524.3983-.1503.8173-.2248,1.2577-.2248.2901,0,.5503.0183.78.0562.2291.0366.4373.0928.6249.1686v1.8825Z" style="fill:#fff;"/><path d="M245.3231,69.1012l-6.617-7.0098h-.0562v7.0098h-1.7983v-21.2981h1.7983v13.6139h.0562l6.2798-6.7019h2.3462l-6.7434,6.9548,7.2773,7.4312h-2.5428Z" style="fill:#fff;"/></svg>
